<?xml version="1.0" encoding="UTF-8" standalone="no"?>
<svg
   width="800"
   height="800"
   version="1.2"
   id="svg2"
   inkscape:version="1.4.2 (f4327f4, 2025-05-13)"
   sodipodi:docname="Mailru.svg"
   xmlns:inkscape="http://www.inkscape.org/namespaces/inkscape"
   xmlns:sodipodi="http://sodipodi.sourceforge.net/DTD/sodipodi-0.dtd"
   xmlns="http://www.w3.org/2000/svg"
   xmlns:svg="http://www.w3.org/2000/svg"
   xmlns:rdf="http://www.w3.org/1999/02/22-rdf-syntax-ns#"
   xmlns:cc="http://creativecommons.org/ns#"
   xmlns:dc="http://purl.org/dc/elements/1.1/">
  <metadata
     id="metadata76">
    <rdf:RDF>
      <cc:Work
         rdf:about="">
        <dc:format>image/svg+xml</dc:format>
        <dc:type
           rdf:resource="http://purl.org/dc/dcmitype/StillImage" />
      </cc:Work>
    </rdf:RDF>
  </metadata>
  <sodipodi:namedview
     pagecolor="#515151"
     bordercolor="#ffffff"
     borderopacity="1"
     objecttolerance="10"
     gridtolerance="10"
     guidetolerance="10"
     inkscape:pageopacity="0"
     inkscape:pageshadow="2"
     inkscape:window-width="1168"
     inkscape:window-height="729"
     id="namedview74"
     showgrid="false"
     fit-margin-top="0"
     fit-margin-left="0"
     fit-margin-right="0"
     fit-margin-bottom="0"
     inkscape:zoom="0.32197911"
     inkscape:cx="619.60542"
     inkscape:cy="619.60542"
     inkscape:window-x="94"
     inkscape:window-y="8"
     inkscape:window-maximized="0"
     inkscape:current-layer="svg2"
     inkscape:showpageshadow="0"
     inkscape:pagecheckerboard="1"
     inkscape:deskcolor="#505050" />
  <desc
     id="desc4">Created by HiQPdf</desc>
  <defs
     id="defs6" />
  <g
     style="fill:#ff9e00;fill-opacity:1;fill-rule:evenodd;stroke:none"
     id="g30"
     transform="matrix(24.995178,0,0,24.995178,0.09956994,0.09956319)">
    <path
       style="fill-rule:nonzero;fill:#000000;fill-opacity:1;stroke:none"
       inkscape:connector-curvature="0"
       id="path32"
       d="M 20.813,16 C 20.8102,18.657 18.657,20.8102 16,20.813 13.343,20.8102 11.1898,18.657 11.187,16 11.1898,13.343 13.343,11.1898 16,11.187 18.657,11.1898 20.8102,13.343 20.813,16 M 16,0 C 7.178,0 0,7.178 0,16 c 0,8.822 7.178,16 16,16 3.232,0 6.349,-0.962 9.013,-2.783 l 0.046,-0.032 -2.156,-2.506 -0.036,0.024 C 20.8194,28.0212 18.4353,28.7215 16,28.72 8.986,28.72 3.28,23.014 3.28,16 3.28,8.986 8.986,3.28 16,3.28 c 7.014,0 12.72,5.706 12.72,12.72 0,0.909 -0.101,1.829 -0.3,2.734 -0.402,1.651 -1.558,2.157 -2.426,2.09 C 25.121,20.753 24.1,20.131 24.093,18.609 V 16 c 0,-4.463 -3.63,-8.093 -8.093,-8.093 -4.463,0 -8.093,3.63 -8.093,8.093 0,4.463 3.63,8.093 8.093,8.093 2.1544,0.0051 4.2205,-0.8557 5.734,-2.389 0.8812,1.3819 2.3625,2.2673 3.997,2.389 1.3166,0.1026 2.6251,-0.2809 3.678,-1.078 0.959,-0.728 1.675,-1.781 2.071,-3.046 0.063,-0.204 0.179,-0.672 0.18,-0.675 l 0.003,-0.017 C 31.896,18.262 32,17.25 32,16 32,7.178 24.822,0 16,0"
       vector-effect="none" />
  </g>
</svg>
