<?xml version="1.0" encoding="UTF-8" standalone="no"?>
<!-- Created with Inkscape (http://www.inkscape.org/) -->

<svg
   width="174mm"
   height="174mm"
   viewBox="0 0 174 174"
   version="1.1"
   id="svg1"
   inkscape:version="1.4.2 (f4327f4, 2025-05-13)"
   sodipodi:docname="tunduk.svg"
   xmlns:inkscape="http://www.inkscape.org/namespaces/inkscape"
   xmlns:sodipodi="http://sodipodi.sourceforge.net/DTD/sodipodi-0.dtd"
   xmlns="http://www.w3.org/2000/svg"
   xmlns:svg="http://www.w3.org/2000/svg">
  <sodipodi:namedview
     id="namedview1"
     pagecolor="#ffffff"
     bordercolor="#ffffff"
     borderopacity="0"
     inkscape:showpageshadow="true"
     inkscape:pageopacity="0"
     inkscape:pagecheckerboard="false"
     inkscape:deskcolor="#000000"
     inkscape:document-units="mm"
     showborder="false"
     borderlayer="true"
     inkscape:antialias-rendering="true"
     inkscape:zoom="0.5"
     inkscape:cx="254"
     inkscape:cy="537"
     inkscape:window-width="1366"
     inkscape:window-height="705"
     inkscape:window-x="-8"
     inkscape:window-y="-8"
     inkscape:window-maximized="1"
     inkscape:current-layer="layer1" />
  <defs
     id="defs1" />
  <g
     inkscape:label="Слой 1"
     inkscape:groupmode="layer"
     id="layer1">
    <g
       id="g9"
       transform="matrix(0.72182072,0,0,0.72182072,-178.64823,-76.622547)"
       style="fill:none;stroke:#d37071;stroke-width:6.19960037;stroke-dasharray:none;stroke-opacity:1;stroke-linejoin:miter;stroke-linecap:round;paint-order:normal">
      <path
         style="opacity:1;fill:none;fill-opacity:0.791822;stroke:#d37071;stroke-width:6.19960037;stroke-linecap:round;stroke-dasharray:none;stroke-opacity:1;paint-order:normal;stroke-linejoin:miter"
         d="m 251.36405,220.33925 c 3.41462,-59.89934 51.8214,-107.91042 115.53798,-109.32916 69.70957,-0.058 114.59777,53.43967 118.1155,106.83209 4.50744,72.59165 -54.88629,123.3685 -116.33143,123.05864 -69.20474,-0.0224 -120.14985,-56.46167 -117.32205,-120.56157 z"
         id="path3"
         sodipodi:nodetypes="ccccc" />
      <path
         style="opacity:1;fill:none;fill-opacity:0.791822;stroke:#d37071;stroke-width:6.19960037;stroke-linecap:round;stroke-dasharray:none;stroke-opacity:1;paint-order:normal;stroke-linejoin:miter"
         d="m 310.91706,326.07566 c 4.1091,-14.62524 9.39125,-28.89857 16.82693,-42.52584 8.27156,-15.48321 16.87615,-30.78477 28.75601,-44.29982 12.9553,-16.07315 27.79946,-29.83769 43.75,-42.25 10.65704,-8.45009 23.45077,-16.63 38.03125,-24.34375 7.4713,-3.80311 18.90695,-9.23674 25.84596,-11.30332"
         id="path4"
         sodipodi:nodetypes="cccccc" />
      <path
         style="opacity:1;fill:none;fill-opacity:0.791822;stroke:#d37071;stroke-width:6.19960037;stroke-linecap:round;stroke-dasharray:none;stroke-opacity:1;paint-order:normal;stroke-linejoin:miter"
         d="m 425.76667,326.21929 c -4.03972,-14.10531 -9.36589,-28.21061 -17.05895,-42.31592 -7.11546,-14.28717 -15.52377,-28.26542 -26.87006,-42.07285 -12.77903,-15.23148 -23.56657,-27.64528 -45.27516,-45.01802 -11.61381,-8.67606 -27.24878,-18.5361 -40.28476,-24.98555 -7.03952,-3.50444 -15.17843,-7.13436 -23.58633,-10.26054"
         id="path5"
         sodipodi:nodetypes="cccccc" />
      <path
         style="opacity:1;fill:none;fill-opacity:0.791822;stroke:#d37071;stroke-width:6.19960037;stroke-linecap:round;stroke-dasharray:none;stroke-opacity:1;paint-order:normal;stroke-linejoin:miter"
         d="m 452.8125,304.8125 c -4.88171,-12.90301 -10.87199,-25.4365 -17.15659,-37.87188 -7.89315,-14.5765 -16.77588,-27.17383 -26.07779,-38.93281 -14.95357,-18.00938 -32.94306,-34.5302 -53.10746,-48.4056 -13.92465,-9.21589 -25.52816,-15.8811 -39.39254,-22.3444 -10.17567,-4.62527 -20.43917,-9.01635 -31.31249,-11.78125"
         id="path6"
         sodipodi:nodetypes="cccccc" />
      <path
         style="opacity:1;fill:none;fill-opacity:0.791822;stroke:#d37071;stroke-width:6.19960037;stroke-linecap:round;stroke-dasharray:none;stroke-opacity:1;paint-order:normal;stroke-linejoin:miter"
         d="M 283.96875,304.65625 C 287.80678,291.57745 293.58066,279.07941 300.75,267 c 6.60935,-12.50728 15.99802,-26.47735 28.93854,-42.31682 14.72299,-16.7208 29.3928,-30.95529 49.76264,-44.98967 C 391.06454,171.53497 405.05424,163.74202 421,156.25 c 9.44674,-4.49395 19.16717,-8.57737 30.01562,-10.96875"
         id="path7"
         sodipodi:nodetypes="cccccc" />
      <path
         style="opacity:1;fill:none;fill-opacity:0.791822;stroke:#d37071;stroke-width:6.19960037;stroke-linecap:round;stroke-dasharray:none;stroke-opacity:1;paint-order:normal;stroke-linejoin:miter"
         d="M 264.63471,276.43456 C 269.36802,263.82689 275.27005,251.60879 283,240 c 6.11276,-10.22146 15.221,-22.02877 27,-35.25 14.45874,-14.68285 29.0274,-29.23378 46.75,-40 13.69742,-9.38591 29.00279,-17.16387 46,-23.25 10.22472,-3.77139 20.70277,-7.28945 31.9218,-10.06653"
         id="path8"
         sodipodi:nodetypes="cccccc" />
      <path
         style="opacity:1;fill:none;fill-opacity:0.791822;stroke:#d37071;stroke-width:6.19960037;stroke-linecap:round;stroke-dasharray:none;stroke-opacity:1;paint-order:normal;stroke-linejoin:miter"
         d="m 472.10937,276.875 c -4.6911,-12.17247 -10.7844,-25.36473 -22.74301,-42.82266 -8.74662,-12.8944 -16.67403,-22.26928 -25.10229,-31.46625 -12.27945,-13.71471 -28.25802,-27.36466 -45.52,-38.22796 -14.30616,-9.78501 -27.30682,-15.70866 -41.18897,-21.38998 -11.04681,-4.04458 -21.27577,-8.243 -36.12874,-10.93806"
         id="path9"
         sodipodi:nodetypes="cccccc" />
    </g>
  </g>
</svg>
