<?xml version="1.0" encoding="UTF-8" standalone="no"?>
<!-- Generator: Adobe Illustrator 13.0.0, SVG Export Plug-In . SVG Version: 6.00 Build 14948)  -->

<svg
   version="1.1"
   id="Layer_1"
   x="0px"
   y="0px"
   width="800"
   height="800"
   viewBox="0 0 799.99998 799.99997"
   enable-background="new 0 0 405.661 316.98"
   xml:space="preserve"
   sodipodi:docname="whatsapp.svg"
   inkscape:version="1.4.2 (f4327f4, 2025-05-13)"
   xmlns:inkscape="http://www.inkscape.org/namespaces/inkscape"
   xmlns:sodipodi="http://sodipodi.sourceforge.net/DTD/sodipodi-0.dtd"
   xmlns="http://www.w3.org/2000/svg"
   xmlns:svg="http://www.w3.org/2000/svg"><defs
   id="defs11" /><sodipodi:namedview
   id="namedview11"
   pagecolor="#505050"
   bordercolor="#ffffff"
   borderopacity="1"
   inkscape:showpageshadow="0"
   inkscape:pageopacity="0"
   inkscape:pagecheckerboard="1"
   inkscape:deskcolor="#505050"
   inkscape:zoom="0.28051825"
   inkscape:cx="215.67224"
   inkscape:cy="361.83029"
   inkscape:window-width="1366"
   inkscape:window-height="705"
   inkscape:window-x="-8"
   inkscape:window-y="-8"
   inkscape:window-maximized="1"
   inkscape:current-layer="Layer_1" />

<g
   id="g3"
   transform="matrix(4.1008732,0,0,4.1105933,-463.04222,-43.379324)">
	<path
   fill-rule="evenodd"
   clip-rule="evenodd"
   d="m 112.956,205.125 c 5.281,-17.05 11.402,-33.26 16.998,-49.994 -37.095,-64.878 8.812,-137.915 70.991,-143.982 58.707,-5.729 106.841,36.439 106.987,93.988 0.153,60.723 -58.74,111.713 -124.985,90.988 -4.997,-1.563 -11.18,-6.657 -16.998,-6.999 -8.131,-0.479 -18.787,5.359 -26.997,7.999 -8.999,2.895 -16.824,5.796 -25.996,8 z m 54.993,-33.996 c 53.495,32.466 117.551,-3.949 122.985,-56.993 4.918,-48.019 -33.424,-90.745 -84.99,-86.989 -58.87,4.287 -94.232,74.559 -57.993,125.984 -3.208,8.791 -6.21,17.788 -8.999,26.997 9.822,-2.844 18.876,-6.455 28.997,-8.999 z"
   id="path1" />
	
	<path
   fill-rule="evenodd"
   clip-rule="evenodd"
   d="m 188.947,60.143 c 5.627,11.77 14.331,29.179 0,36.996 7.278,15.386 19.311,26.017 34.995,32.996 5.216,-3.45 8.641,-8.691 12.999,-12.998 9.104,3.561 17.614,7.715 24.996,12.998 0.759,17.201 -13.736,23.562 -25.996,22.997 -25.865,-1.19 -61.414,-33.867 -69.991,-57.993 -5.09,-14.315 0.764,-41.695 22.997,-34.996 z"
   id="path3" />
</g>

</svg>
